HIERARCHY
ROOT Hips
{
	OFFSET 0.000000 0.000000 0.000000 
	CHANNELS 6 Xposition Yposition Zposition Zrotation Xrotation Yrotation
	JOINT Spine
	{
		OFFSET -0.000000 8.285670 0.000000 
		CHANNELS 3 Zrotation Xrotation Yrotation
		JOINT Spine1
		{
			OFFSET -0.000000 20.280901 0.000000 
			CHANNELS 3 Zrotation Xrotation Yrotation
			JOINT Neck
			{
				OFFSET -0.000000 22.301800 0.000000 
				CHANNELS 3 Zrotation Xrotation Yrotation
				JOINT Head
				{
					OFFSET -0.000000 15.661900 2.020890 
					CHANNELS 3 Zrotation Xrotation Yrotation
					End Site
					{
						OFFSET -0.000000 20.208887 0.000000 
					}
				}
			}
			JOINT LeftShoulder
			{
				OFFSET 3.887530 15.503099 -0.416373 
				CHANNELS 3 Zrotation Xrotation Yrotation
				JOINT LeftArm
				{
					OFFSET 20.767099 0.000000 0.000000 
					CHANNELS 3 Zrotation Xrotation Yrotation
					JOINT LeftForeArm
					{
						OFFSET 26.608500 0.000000 0.000000 
						CHANNELS 3 Zrotation Xrotation Yrotation
						JOINT LeftHand
						{
							OFFSET 25.563202 0.000000 0.000000 
							CHANNELS 3 Zrotation Xrotation Yrotation
							End Site
							{
								OFFSET 15.156667 0.000000 0.000000 
							}
						}
					}
				}
			}
			JOINT RightShoulder
			{
				OFFSET -4.190880 15.503099 -0.416373 
				CHANNELS 3 Zrotation Xrotation Yrotation
				JOINT RightArm
				{
					OFFSET -20.767099 0.000000 0.000000 
					CHANNELS 3 Zrotation Xrotation Yrotation
					JOINT RightForeArm
					{
						OFFSET -26.608500 0.000000 0.000000 
						CHANNELS 3 Zrotation Xrotation Yrotation
						JOINT RightHand
						{
							OFFSET -25.563202 0.000000 0.000000 
							CHANNELS 3 Zrotation Xrotation Yrotation
							End Site
							{
								OFFSET -15.156667 0.000000 0.000000 
							}
						}
					}
				}
			}
		}
	}
	JOINT LeftUpLeg
	{
		OFFSET 10.104500 0.000000 0.000000 
		CHANNELS 3 Zrotation Xrotation Yrotation
		JOINT LeftLeg
		{
			OFFSET -0.000000 -50.743301 0.000000 
			CHANNELS 3 Zrotation Xrotation Yrotation
			JOINT LeftFoot
			{
				OFFSET -0.000000 -35.579197 0.000000 
				CHANNELS 3 Zrotation Xrotation Yrotation
				JOINT LeftToeBase
				{
					OFFSET -0.000000 -6.567910 15.156700 
					CHANNELS 3 Zrotation Xrotation Yrotation
					End Site
					{
						OFFSET -0.000000 0.000000 4.041778 
					}
				}
			}
		}
	}
	JOINT RightUpLeg
	{
		OFFSET -10.104500 0.000000 0.000000 
		CHANNELS 3 Zrotation Xrotation Yrotation
		JOINT RightLeg
		{
			OFFSET -0.000000 -50.743301 0.000000 
			CHANNELS 3 Zrotation Xrotation Yrotation
			JOINT RightFoot
			{
				OFFSET -0.000000 -35.579197 0.000000 
				CHANNELS 3 Zrotation Xrotation Yrotation
				JOINT RightToeBase
				{
					OFFSET -0.000000 -6.567910 15.156700 
					CHANNELS 3 Zrotation Xrotation Yrotation
					End Site
					{
						OFFSET -0.000000 0.000000 4.041778 
					}
				}
			}
		}
	}
}
MOTION
Frames: 18
Frame Time: 0.010000
16.629778 89.658012 46.196850 -0.648917 1.135082 37.706631 5.407142 0.831376 1.606883 -0.678025 -3.717607 0.531944 0.581807 17.625610 7.532978 -5.979258 -9.068312 8.244854 -8.973370 12.197221 4.951636 -75.620247 16.707760 -10.620296 -1.806503 20.220945 8.003726 9.847249 18.893291 -17.680031 -11.481331 6.479744 -7.261205 78.281281 30.163876 19.872307 4.827876 6.300890 3.368886 21.403091 8.941413 14.766031 4.359652 -19.155224 -11.358981 -8.679759 40.615025 -28.647280 23.690695 -16.381504 53.886250 0.000000 0.000000 0.000000 -7.706524 3.604658 -13.568168 12.268195 12.024857 -2.328118 -12.128592 -27.595161 -1.913388 0.000000 0.000000 0.000000 
16.994089 89.657806 46.493496 -0.566954 1.063566 37.866776 5.282897 0.865842 1.629423 -0.641512 -3.694919 0.540903 0.499322 17.678419 7.523615 -5.886357 -9.125097 8.204216 -8.961665 12.242332 4.996741 -75.540520 16.621389 -10.594396 -1.794152 20.198376 8.048244 9.765069 18.884670 -17.654615 -11.468598 6.500877 -7.270091 78.233772 29.940426 19.829700 5.019988 6.387693 3.522729 21.367498 8.990172 14.657862 4.212601 -18.982841 -11.342375 -8.678743 40.185337 -28.411688 23.835188 -16.123098 53.666378 0.000000 0.000000 0.000000 -7.736551 3.903675 -13.626388 12.258124 11.955708 -2.726059 -12.048473 -27.725000 -1.644832 0.000000 0.000000 0.000000 
17.365242 89.657631 46.787292 -0.483325 0.991696 38.021637 5.153203 0.903508 1.647786 -0.599732 -3.676177 0.548563 0.413714 17.732918 7.515774 -5.790178 -9.183397 8.164061 -8.949772 12.279852 5.033612 -75.461510 16.543295 -10.570876 -1.780521 20.176466 8.088552 9.686179 18.876017 -17.629341 -11.455987 6.522842 -7.280272 78.185158 29.712337 19.786993 5.219798 6.478389 3.675392 21.328390 9.041377 14.547816 4.062723 -18.798269 -11.320041 -8.670468 39.764774 -28.190350 23.976551 -15.889399 53.452690 0.000000 0.000000 0.000000 -7.770216 4.180131 -13.679243 12.239189 11.923920 -3.144837 -11.953705 -27.872986 -1.355671 0.000000 0.000000 0.000000 
17.742950 89.657509 47.078262 -0.398163 0.919536 38.171371 5.018252 0.944109 1.661880 -0.552944 -3.661146 0.554940 0.325528 17.788626 7.509356 -5.690954 -9.242448 8.124422 -8.937458 12.309434 5.061959 -75.383461 16.473581 -10.549626 -1.765901 20.155302 8.124926 9.611095 18.867393 -17.604265 -11.443119 6.545425 -7.291707 78.135544 29.481195 19.744345 5.425845 6.572091 3.826023 21.286442 9.094467 14.436695 3.910272 -18.601944 -11.292063 -8.655132 39.353840 -27.982943 24.114727 -15.680221 53.244644 0.000000 0.000000 0.000000 -7.807536 4.432928 -13.726783 12.210924 11.931072 -3.585557 -11.842595 -28.040220 -1.043549 0.000000 0.000000 0.000000 
18.127012 89.657486 47.366516 -0.311715 0.847223 38.316402 4.878330 0.987305 1.671627 -0.501148 -3.649570 0.560015 0.234606 17.845074 7.504474 -5.588504 -9.301764 8.085471 -8.924841 12.330855 5.081588 -75.306137 16.412260 -10.530740 -1.750566 20.134947 8.157419 9.540030 18.858799 -17.579483 -11.430202 6.568494 -7.304443 78.084785 29.247421 19.702040 5.638390 6.668633 3.974337 21.241579 9.149275 14.324670 3.755670 -18.394382 -11.258372 -8.633098 38.953003 -27.789675 24.249685 -15.495338 53.042320 0.000000 0.000000 0.000000 -7.848586 4.661055 -13.768738 12.173567 11.978352 -4.048086 -11.714417 -28.227039 -0.708140 0.000000 0.000000 0.000000 
18.516981 89.657593 47.651985 -0.224088 0.774838 38.456467 4.733606 1.032978 1.677035 -0.444463 -3.641508 0.563748 0.141157 17.902296 7.501137 -5.482981 -9.361098 8.047224 -8.911742 12.344127 5.092281 -75.229652 16.359430 -10.514202 -1.734791 20.115473 8.186095 9.473320 18.850288 -17.555134 -11.417129 6.592116 -7.318503 78.032845 29.011787 19.660469 5.856964 6.767606 4.119553 21.193922 9.205580 14.212298 3.599161 -18.176023 -11.219185 -8.604930 38.562550 -27.610044 24.381416 -15.334139 52.845490 0.000000 0.000000 0.000000 -7.893370 4.863478 -13.805216 12.126569 12.067098 -4.533579 -11.566908 -28.434242 -0.346507 0.000000 0.000000 0.000000 
18.912628 89.657875 47.934677 -0.135510 0.702517 38.592243 4.584361 1.080814 1.678134 -0.383113 -3.636768 0.566054 0.045828 17.959814 7.499171 -5.374738 -9.419797 8.009795 -8.897934 12.349035 5.093815 -75.154182 16.315187 -10.500094 -1.718698 20.096914 8.211305 9.411192 18.841908 -17.531332 -11.403878 6.616213 -7.333759 77.979706 28.775412 19.619747 6.080770 6.868322 4.261359 21.143860 9.262878 14.100045 3.441034 -17.947308 -11.174412 -8.570557 38.182545 -27.443552 24.509726 -15.196428 52.653233 0.000000 0.000000 0.000000 -7.941841 5.039185 -13.836243 12.069684 12.198542 -5.042607 -11.397890 -28.662174 0.043519 0.000000 0.000000 0.000000 
19.313650 89.658340 48.214767 -0.046184 0.630308 38.723808 4.430785 1.130493 1.674658 -0.317043 -3.635042 0.567105 -0.051327 18.017210 7.498707 -5.263829 -9.477394 7.973314 -8.883462 12.345402 5.086039 -75.079514 16.279478 -10.488390 -1.702571 20.079334 8.232969 9.353809 18.833664 -17.508142 -11.390478 6.640702 -7.350157 77.925209 28.538900 19.580297 6.309730 6.970452 4.399173 21.091345 9.320991 13.988330 3.281699 -17.708755 -11.124103 -8.530537 37.813320 -27.290340 24.634794 -15.081561 52.465973 0.000000 0.000000 0.000000 -7.993965 5.187361 -13.861563 12.002917 12.373474 -5.575567 -11.205647 -28.910627 0.463839 0.000000 0.000000 0.000000 
19.719715 89.659042 48.492260 0.043704 0.558366 38.850918 4.273305 1.181687 1.666858 -0.246669 -3.636144 0.566633 -0.149988 18.074047 7.499702 -5.150280 -9.533253 7.937859 -8.868191 12.333162 5.068827 -75.005646 16.252295 -10.479228 -1.686786 20.062849 8.251275 9.301640 18.825678 -17.485538 -11.376740 6.665454 -7.367750 77.869392 28.303284 19.542301 6.542919 7.073465 4.532425 21.036827 9.379586 13.877742 3.121348 -17.460859 -11.068531 -8.485266 37.454811 -27.149744 24.756672 -14.988695 52.283325 0.000000 0.000000 0.000000 -8.049731 5.307028 -13.881301 11.925907 12.592957 -6.133249 -10.987311 -29.179663 0.917564 0.000000 0.000000 0.000000 
20.130457 89.659988 48.767151 0.134105 0.486722 38.974178 4.111979 1.234340 1.654474 -0.171919 -3.639943 0.564811 -0.250174 18.129807 7.502233 -5.034163 -9.586832 7.903525 -8.852124 12.312124 5.042088 -74.932533 16.234007 -10.472551 -1.671065 20.047243 8.266280 9.254533 18.817713 -17.463556 -11.362887 6.690509 -7.386518 77.812180 28.069281 19.506229 6.780253 7.176997 4.660665 20.980326 9.438443 13.768587 2.960238 -17.203812 -11.007516 -8.434921 37.106770 -27.021376 24.875280 -14.917244 52.104763 0.000000 0.000000 0.000000 -8.109115 5.397538 -13.895451 11.838333 12.857737 -6.717168 -10.739511 -29.469004 1.408809 0.000000 0.000000 0.000000 
20.545654 89.661209 49.039627 0.224696 0.415540 39.093601 3.947089 1.287844 1.637603 -0.092984 -3.646069 0.561535 -0.350717 18.184481 7.505980 -4.916410 -9.637836 7.870408 -8.835082 12.282341 5.005649 -74.860176 16.224285 -10.468548 -1.655895 20.032745 8.278116 9.212846 18.809988 -17.442236 -11.348567 6.715686 -7.406244 77.753380 27.837553 19.472080 7.021175 7.280535 4.783508 20.921896 9.497202 13.661345 2.798667 -16.938314 -10.941499 -8.380083 36.769188 -26.904446 24.990726 -14.866301 51.930084 0.000000 0.000000 0.000000 -8.172038 5.458038 -13.903918 11.740150 13.168343 -7.327369 -10.459812 -29.777718 1.940121 0.000000 0.000000 0.000000 
20.964874 89.662712 49.309540 0.315360 0.344867 39.209686 3.779031 1.342235 1.616240 -0.010074 -3.654550 0.556782 -0.452176 18.237637 7.511202 -4.796407 -9.685929 7.838589 -8.817099 12.243674 4.959500 -74.788330 16.223557 -10.467100 -1.641196 20.019121 8.286560 9.176605 18.802301 -17.421406 -11.334039 6.741030 -7.427177 77.693092 27.609369 19.440422 7.265029 7.383543 4.900306 20.861946 9.555586 13.556630 2.636884 -16.664671 -10.870223 -8.320705 36.441864 -26.798887 25.103041 -14.835260 51.759060 0.000000 0.000000 0.000000 -8.238305 5.487918 -13.906766 11.630785 13.525204 -7.965890 -10.143612 -30.104914 2.517027 0.000000 0.000000 0.000000 
21.387827 89.664528 49.577049 0.406028 0.274790 39.322350 3.607929 1.397059 1.590263 0.076705 -3.664852 0.550619 -0.553970 18.288616 7.517796 -4.674612 -9.730200 7.808153 -8.798008 12.196137 4.903539 -74.717056 16.231688 -10.468467 -1.627195 20.006426 8.291997 9.146065 18.794647 -17.401190 -11.319331 6.766464 -7.449070 77.631447 27.385225 19.411463 7.511403 7.485671 5.010621 20.800436 9.613379 13.454833 2.475022 -16.383184 -10.794104 -8.257465 36.124344 -26.703604 25.212290 -14.822979 51.591347 0.000000 0.000000 0.000000 -8.308096 5.486745 -13.903775 11.510612 13.928499 -8.632532 -9.788379 -30.448751 3.142081 0.000000 0.000000 0.000000 
21.814222 89.666672 49.842297 0.496415 0.205414 39.431885 3.434075 1.452070 1.559765 0.167288 -3.676944 0.542962 -0.655520 18.337343 7.525586 -4.551552 -9.770617 7.779169 -8.778109 12.139600 4.837889 -74.645988 16.248936 -10.472483 -1.613652 19.994568 8.294070 9.121035 18.786976 -17.381327 -11.304132 6.791862 -7.471982 77.567986 27.165939 19.385347 7.759834 7.586443 5.114205 20.737619 9.670284 13.356288 2.313429 -16.094349 -10.713160 -8.190561 35.816288 -26.618313 25.318554 -14.828639 51.426743 0.000000 0.000000 0.000000 -8.381007 5.453912 -13.895204 11.378811 14.378294 -9.329120 -9.389154 -30.807600 3.821432 0.000000 0.000000 0.000000 
22.243624 89.669128 50.105225 0.586487 0.136818 39.538532 3.257749 1.506966 1.524615 0.261367 -3.690430 0.533890 -0.756325 18.383669 7.534490 -4.427781 -9.806908 7.751719 -8.757083 12.074220 4.762439 -74.575249 16.275135 -10.479445 -1.600642 19.983524 8.293067 9.101596 18.779263 -17.361956 -11.288595 6.817298 -7.495703 77.502853 26.952158 19.362429 8.009819 7.685401 5.210675 20.673576 9.726047 13.261512 2.152135 -15.798420 -10.627542 -8.120147 35.517242 -26.542072 25.421894 -14.851374 51.264706 0.000000 0.000000 0.000000 -8.457088 5.389113 -13.881042 11.235317 14.874428 -10.056740 -8.941596 -31.179043 4.560168 0.000000 0.000000 0.000000 
22.675831 89.671936 50.366001 0.675995 0.069081 39.642284 3.079372 1.561476 1.484855 0.358711 -3.705082 0.523406 -0.856390 18.426790 7.544584 -4.303050 -9.838267 7.725878 -8.734977 11.999907 4.677315 -74.504570 16.310631 -10.489295 -1.588240 19.973152 8.288765 9.087800 18.771395 -17.342859 -11.272678 6.842566 -7.520409 77.436096 26.744732 19.342974 8.260878 7.782187 5.299549 20.608576 9.780466 13.170898 1.991484 -15.495865 -10.537315 -8.046608 35.226852 -26.474728 25.522356 -14.890160 51.105389 0.000000 0.000000 0.000000 -8.536129 5.292093 -13.861078 11.080183 15.416284 -10.815741 -8.442066 -31.559843 5.362399 0.000000 0.000000 0.000000 
23.110483 89.675072 50.624687 0.764903 0.002261 39.743828 2.899164 1.615265 1.440631 0.459160 -3.720486 0.511373 -0.955116 18.466795 7.555647 -4.178128 -9.864861 7.701595 -8.711849 11.916712 4.582474 -74.433716 16.355194 -10.502088 -1.576453 19.963375 8.280949 9.079655 18.763300 -17.323729 -11.256366 6.867712 -7.545856 77.367699 26.544329 19.327185 8.512267 7.876248 5.380610 20.542692 9.833222 13.084876 1.831633 -15.186974 -10.442801 -7.970538 34.944660 -26.415331 25.620070 -14.943951 50.948540 0.000000 0.000000 0.000000 -8.617949 5.162714 -13.835652 10.912827 16.003262 -11.607956 -7.885159 -31.946815 6.235021 0.000000 0.000000 0.000000 
23.547247 89.678551 50.881367 0.853019 -0.063544 39.842995 2.717416 1.668276 1.391808 0.562576 -3.736710 0.497925 -1.052311 18.503283 7.567688 -4.053088 -9.886084 7.679018 -8.687859 11.824772 4.478230 -74.362511 16.409294 -10.517970 -1.564918 19.954041 8.269792 9.076908 18.754826 -17.304680 -11.239676 6.892691 -7.572193 77.297455 26.351284 19.315247 8.764175 7.967505 5.453639 20.475899 9.884292 13.003702 1.672685 -14.872025 -10.344074 -7.891783 34.669933 -26.363174 25.714939 -15.012064 50.793530 0.000000 0.000000 0.000000 -8.702467 5.000912 -13.804592 10.733529 16.634363 -12.433040 -7.267759 -32.335461 7.181527 0.000000 0.000000 0.000000 
